<?xml version="1.0" encoding="UTF-8" standalone="no"?>
<!DOCTYPE svg PUBLIC "-//W3C//DTD SVG 1.1//EN"
 "http://www.w3.org/Graphics/SVG/1.1/DTD/svg11.dtd">
<!-- Generated by graphviz version 2.43.0 (0)
 -->
<!-- Title: ms_database_connector.__main__.PollingWorker.__init__ Pages: 1 -->
<svg width="731pt" height="108pt"
 viewBox="0.00 0.00 731.00 108.00" xmlns="http://www.w3.org/2000/svg" xmlns:xlink="http://www.w3.org/1999/xlink">
<g id="graph0" class="graph" transform="scale(1 1) rotate(0) translate(4 104)">
<title>ms_database_connector.__main__.PollingWorker.__init__</title>
<!-- Node1 -->
<g id="Node000001" class="node">
<title>Node1</title>
<g id="a_Node000001"><a xlink:title=" ">
<polygon fill="#999999" stroke="#666666" points="137,-70 0,-70 0,-29 137,-29 137,-70"/>
<text text-anchor="start" x="8" y="-58" font-family="Helvetica,sans-Serif" font-size="10.00">ms_database_connector.</text>
<text text-anchor="start" x="8" y="-47" font-family="Helvetica,sans-Serif" font-size="10.00">__main__.PollingWorker.</text>
<text text-anchor="middle" x="68.5" y="-36" font-family="Helvetica,sans-Serif" font-size="10.00">__init__</text>
</a>
</g>
</g>
<!-- Node2 -->
<g id="Node000002" class="node">
<title>Node2</title>
<g id="a_Node000002"><a xlink:href="classms__database__connector_1_1____main_____1_1PollingWorker.html#ae9b7c889967bb00b3800d62a03f33941" target="_top" xlink:title="Main polling loop.">
<polygon fill="white" stroke="#666666" points="328,-64.5 173,-64.5 173,-34.5 328,-34.5 328,-64.5"/>
<text text-anchor="start" x="181" y="-52.5" font-family="Helvetica,sans-Serif" font-size="10.00">ms_database_connector.</text>
<text text-anchor="middle" x="250.5" y="-41.5" font-family="Helvetica,sans-Serif" font-size="10.00">__main__.PollingWorker._run</text>
</a>
</g>
</g>
<!-- Node1&#45;&gt;Node2 -->
<g id="edge1_Node000001_Node000002" class="edge">
<title>Node1&#45;&gt;Node2</title>
<g id="a_edge1_Node000001_Node000002"><a xlink:title=" ">
<path fill="none" stroke="#63b8ff" d="M137.04,-49.5C145.43,-49.5 154.09,-49.5 162.72,-49.5"/>
<polygon fill="#63b8ff" stroke="#63b8ff" points="162.81,-53 172.81,-49.5 162.81,-46 162.81,-53"/>
</a>
</g>
</g>
<!-- Node3 -->
<g id="Node000003" class="node">
<title>Node3</title>
<g id="a_Node000003"><a xlink:href="classms__database__connector_1_1____main_____1_1PollingWorker.html#a8ecba1a2300fba67b48e8ed37e99fc8e" target="_top" xlink:title="Collect mapped InfluxDB points required for one polling cycle.">
<polygon fill="white" stroke="#666666" points="531,-100 364,-100 364,-59 531,-59 531,-100"/>
<text text-anchor="start" x="372" y="-88" font-family="Helvetica,sans-Serif" font-size="10.00">ms_database_connector.</text>
<text text-anchor="start" x="372" y="-77" font-family="Helvetica,sans-Serif" font-size="10.00">__main__.PollingWorker.collect</text>
<text text-anchor="middle" x="447.5" y="-66" font-family="Helvetica,sans-Serif" font-size="10.00">_influx_points</text>
</a>
</g>
</g>
<!-- Node2&#45;&gt;Node3 -->
<g id="edge2_Node000002_Node000003" class="edge">
<title>Node2&#45;&gt;Node3</title>
<g id="a_edge2_Node000002_Node000003"><a xlink:title=" ">
<path fill="none" stroke="#63b8ff" d="M328.01,-61.27C336.45,-62.57 345.1,-63.9 353.71,-65.22"/>
<polygon fill="#63b8ff" stroke="#63b8ff" points="353.36,-68.71 363.77,-66.77 354.42,-61.79 353.36,-68.71"/>
</a>
</g>
</g>
<!-- Node4 -->
<g id="Node000004" class="node">
<title>Node4</title>
<g id="a_Node000004"><a xlink:href="classms__database__connector_1_1____main_____1_1PollingWorker.html#a78b3dd07cc2549a85b0034defef9d457" target="_top" xlink:title="Persist a prepared set of InfluxDB points for one polling cycle.">
<polygon fill="white" stroke="#666666" points="527,-41 368,-41 368,0 527,0 527,-41"/>
<text text-anchor="start" x="376" y="-29" font-family="Helvetica,sans-Serif" font-size="10.00">ms_database_connector.</text>
<text text-anchor="start" x="376" y="-18" font-family="Helvetica,sans-Serif" font-size="10.00">__main__.PollingWorker.write</text>
<text text-anchor="middle" x="447.5" y="-7" font-family="Helvetica,sans-Serif" font-size="10.00">_influx_points</text>
</a>
</g>
</g>
<!-- Node2&#45;&gt;Node4 -->
<g id="edge3_Node000002_Node000004" class="edge">
<title>Node2&#45;&gt;Node4</title>
<g id="a_edge3_Node000002_Node000004"><a xlink:title=" ">
<path fill="none" stroke="#63b8ff" d="M328.01,-38.12C337.85,-36.66 348,-35.15 358.01,-33.66"/>
<polygon fill="#63b8ff" stroke="#63b8ff" points="358.59,-37.11 367.97,-32.18 357.56,-30.19 358.59,-37.11"/>
</a>
</g>
</g>
<!-- Node5 -->
<g id="Node000005" class="node">
<title>Node5</title>
<g id="a_Node000005"><a xlink:href="namespacems__database__connector_1_1____main____.html#ac65fab42643b046720bb338f5a7b36b4" target="_top" xlink:title="Initialize application startup state tracking.">
<polygon fill="white" stroke="#666666" points="723,-35.5 567,-35.5 567,-5.5 723,-5.5 723,-35.5"/>
<text text-anchor="start" x="575" y="-23.5" font-family="Helvetica,sans-Serif" font-size="10.00">ms_database_connector.</text>
<text text-anchor="middle" x="645" y="-12.5" font-family="Helvetica,sans-Serif" font-size="10.00">__main__._init_startup_state</text>
</a>
</g>
</g>
<!-- Node4&#45;&gt;Node5 -->
<g id="edge4_Node000004_Node000005" class="edge">
<title>Node4&#45;&gt;Node5</title>
<g id="a_edge4_Node000004_Node000005"><a xlink:title=" ">
<path fill="none" stroke="#63b8ff" d="M527.17,-20.5C536.86,-20.5 546.8,-20.5 556.61,-20.5"/>
<polygon fill="#63b8ff" stroke="#63b8ff" points="556.76,-24 566.76,-20.5 556.76,-17 556.76,-24"/>
</a>
</g>
</g>
</g>
</svg>
