<?xml version="1.0" encoding="UTF-8" standalone="no"?>
<!DOCTYPE svg PUBLIC "-//W3C//DTD SVG 1.1//EN"
 "http://www.w3.org/Graphics/SVG/1.1/DTD/svg11.dtd">
<!-- Generated by graphviz version 2.43.0 (0)
 -->
<!-- Title: ms_database_connector.config.db_mapping.MappingTargetType Pages: 1 -->
<svg width="722pt" height="86pt"
 viewBox="0.00 0.00 722.00 86.00" xmlns="http://www.w3.org/2000/svg" xmlns:xlink="http://www.w3.org/1999/xlink">
<g id="graph0" class="graph" transform="scale(1 1) rotate(0) translate(4 82)">
<title>ms_database_connector.config.db_mapping.MappingTargetType</title>
<!-- Node1 -->
<g id="Node000001" class="node">
<title>Node1</title>
<g id="a_Node000001"><a xlink:title="Enumeration of supported InfluxDB target types for mapped fields.">
<polygon fill="#999999" stroke="#666666" points="262,-54 80,-54 80,-24 262,-24 262,-54"/>
<text text-anchor="start" x="88" y="-42" font-family="Helvetica,sans-Serif" font-size="10.00">ms_database_connector.config.db</text>
<text text-anchor="middle" x="171" y="-31" font-family="Helvetica,sans-Serif" font-size="10.00">_mapping.MappingTargetType</text>
</a>
</g>
</g>
<!-- Node4 -->
<g id="Node000004" class="node">
<title>Node4</title>
<g id="a_Node000004"><a xlink:href="classms__database__connector_1_1config_1_1db__mapping_1_1MeasurementMapping.html" target="_top" xlink:title="Mapping configuration for a single InfluxDB measurement.">
<polygon fill="white" stroke="#666666" points="488,-78 306,-78 306,-48 488,-48 488,-78"/>
<text text-anchor="start" x="314" y="-66" font-family="Helvetica,sans-Serif" font-size="10.00">ms_database_connector.config.db</text>
<text text-anchor="middle" x="397" y="-55" font-family="Helvetica,sans-Serif" font-size="10.00">_mapping.MeasurementMapping</text>
</a>
</g>
</g>
<!-- Node1&#45;&gt;Node4 -->
<g id="edge3_Node000001_Node000004" class="edge">
<title>Node1&#45;&gt;Node4</title>
<g id="a_edge3_Node000001_Node000004"><a xlink:title=" ">
<path fill="none" stroke="#63b8ff" d="M272.3,-49.75C283.42,-50.94 294.69,-52.15 305.68,-53.32"/>
<polygon fill="#63b8ff" stroke="#63b8ff" points="272.46,-46.24 262.14,-48.66 271.71,-53.2 272.46,-46.24"/>
</a>
</g>
</g>
<!-- Node6 -->
<g id="Node000006" class="node">
<title>Node6</title>
<g id="a_Node000006"><a xlink:href="classms__database__connector_1_1config_1_1db__mapping_1_1RawMeasurementMapping.html" target="_top" xlink:title="Raw measurement mapping allowing None values for unfilled templates.">
<polygon fill="white" stroke="#666666" points="496,-30 298,-30 298,0 496,0 496,-30"/>
<text text-anchor="start" x="306" y="-18" font-family="Helvetica,sans-Serif" font-size="10.00">ms_database_connector.config.db</text>
<text text-anchor="middle" x="397" y="-7" font-family="Helvetica,sans-Serif" font-size="10.00">_mapping.RawMeasurementMapping</text>
</a>
</g>
</g>
<!-- Node1&#45;&gt;Node6 -->
<g id="edge5_Node000001_Node000006" class="edge">
<title>Node1&#45;&gt;Node6</title>
<g id="a_edge5_Node000001_Node000006"><a xlink:title=" ">
<path fill="none" stroke="#63b8ff" d="M272.16,-28.27C280.74,-27.35 289.41,-26.42 297.98,-25.5"/>
<polygon fill="#63b8ff" stroke="#63b8ff" points="271.71,-24.8 262.14,-29.34 272.46,-31.76 271.71,-24.8"/>
</a>
</g>
</g>
<!-- Node2 -->
<g id="Node000002" class="node">
<title>Node2</title>
<g id="a_Node000002"><a xlink:title=" ">
<polygon fill="white" stroke="#666666" points="36.5,-67.5 7.5,-67.5 7.5,-48.5 36.5,-48.5 36.5,-67.5"/>
<text text-anchor="middle" x="22" y="-55.5" font-family="Helvetica,sans-Serif" font-size="10.00">str</text>
</a>
</g>
</g>
<!-- Node2&#45;&gt;Node1 -->
<g id="edge1_Node000001_Node000002" class="edge">
<title>Node2&#45;&gt;Node1</title>
<g id="a_edge1_Node000001_Node000002"><a xlink:title=" ">
<path fill="none" stroke="#63b8ff" d="M46.63,-54.95C56.1,-53.72 67.66,-52.23 79.86,-50.65"/>
<polygon fill="#63b8ff" stroke="#63b8ff" points="46.03,-51.49 36.57,-56.25 46.93,-58.44 46.03,-51.49"/>
</a>
</g>
</g>
<!-- Node3 -->
<g id="Node000003" class="node">
<title>Node3</title>
<g id="a_Node000003"><a xlink:title=" ">
<polygon fill="white" stroke="#666666" points="44,-30.5 0,-30.5 0,-11.5 44,-11.5 44,-30.5"/>
<text text-anchor="middle" x="22" y="-18.5" font-family="Helvetica,sans-Serif" font-size="10.00">Enum</text>
</a>
</g>
</g>
<!-- Node3&#45;&gt;Node1 -->
<g id="edge2_Node000001_Node000003" class="edge">
<title>Node3&#45;&gt;Node1</title>
<g id="a_edge2_Node000001_Node000003"><a xlink:title=" ">
<path fill="none" stroke="#63b8ff" d="M54.09,-24.81C61.93,-25.77 70.74,-26.85 79.92,-27.97"/>
<polygon fill="#63b8ff" stroke="#63b8ff" points="54.41,-21.32 44.06,-23.58 53.56,-28.27 54.41,-21.32"/>
</a>
</g>
</g>
<!-- Node5 -->
<g id="Node000005" class="node">
<title>Node5</title>
<g id="a_Node000005"><a xlink:href="classms__database__connector_1_1config_1_1db__mapping_1_1DbMapping.html" target="_top" xlink:title="Complete AIMC&#45;to&#45;InfluxDB field mapping configuration.">
<polygon fill="white" stroke="#666666" points="714,-78 532,-78 532,-48 714,-48 714,-78"/>
<text text-anchor="start" x="540" y="-66" font-family="Helvetica,sans-Serif" font-size="10.00">ms_database_connector.config.db</text>
<text text-anchor="middle" x="623" y="-55" font-family="Helvetica,sans-Serif" font-size="10.00">_mapping.DbMapping</text>
</a>
</g>
</g>
<!-- Node4&#45;&gt;Node5 -->
<g id="edge4_Node000004_Node000005" class="edge">
<title>Node4&#45;&gt;Node5</title>
<g id="a_edge4_Node000004_Node000005"><a xlink:title=" ">
<path fill="none" stroke="#63b8ff" d="M498.3,-63C509.42,-63 520.69,-63 531.68,-63"/>
<polygon fill="#63b8ff" stroke="#63b8ff" points="498.14,-59.5 488.14,-63 498.14,-66.5 498.14,-59.5"/>
</a>
</g>
</g>
<!-- Node7 -->
<g id="Node000007" class="node">
<title>Node7</title>
<g id="a_Node000007"><a xlink:href="classms__database__connector_1_1config_1_1db__mapping_1_1RawDbMapping.html" target="_top" xlink:title="Raw AIMC&#45;to&#45;InfluxDB mapping with optional unfilled entries.">
<polygon fill="white" stroke="#666666" points="714,-30 532,-30 532,0 714,0 714,-30"/>
<text text-anchor="start" x="540" y="-18" font-family="Helvetica,sans-Serif" font-size="10.00">ms_database_connector.config.db</text>
<text text-anchor="middle" x="623" y="-7" font-family="Helvetica,sans-Serif" font-size="10.00">_mapping.RawDbMapping</text>
</a>
</g>
</g>
<!-- Node6&#45;&gt;Node7 -->
<g id="edge6_Node000006_Node000007" class="edge">
<title>Node6&#45;&gt;Node7</title>
<g id="a_edge6_Node000006_Node000007"><a xlink:title=" ">
<path fill="none" stroke="#63b8ff" d="M506.3,-15C514.89,-15 523.51,-15 531.95,-15"/>
<polygon fill="#63b8ff" stroke="#63b8ff" points="506.25,-11.5 496.25,-15 506.25,-18.5 506.25,-11.5"/>
</a>
</g>
</g>
</g>
</svg>
