<?xml version="1.0" encoding="UTF-8" standalone="no"?>
<!DOCTYPE svg PUBLIC "-//W3C//DTD SVG 1.1//EN"
 "http://www.w3.org/Graphics/SVG/1.1/DTD/svg11.dtd">
<!-- Generated by graphviz version 2.43.0 (0)
 -->
<!-- Title: ms_database_connector.core.influx_mapping.InfluxMapper._process_measurement Pages: 1 -->
<svg width="868pt" height="108pt"
 viewBox="0.00 0.00 868.00 108.00" xmlns="http://www.w3.org/2000/svg" xmlns:xlink="http://www.w3.org/1999/xlink">
<g id="graph0" class="graph" transform="scale(1 1) rotate(0) translate(4 104)">
<title>ms_database_connector.core.influx_mapping.InfluxMapper._process_measurement</title>
<!-- Node1 -->
<g id="Node000001" class="node">
<title>Node1</title>
<g id="a_Node000001"><a xlink:title="Process a single measurement and its mapped sink paths.">
<polygon fill="#999999" stroke="#666666" points="188,-70 0,-70 0,-29 188,-29 188,-70"/>
<text text-anchor="start" x="8" y="-58" font-family="Helvetica,sans-Serif" font-size="10.00">ms_database_connector.core.influx</text>
<text text-anchor="start" x="8" y="-47" font-family="Helvetica,sans-Serif" font-size="10.00">_mapping.InfluxMapper._process</text>
<text text-anchor="middle" x="94" y="-36" font-family="Helvetica,sans-Serif" font-size="10.00">_measurement</text>
</a>
</g>
</g>
<!-- Node2 -->
<g id="Node000002" class="node">
<title>Node2</title>
<g id="a_Node000002"><a xlink:href="classms__database__connector_1_1core_1_1influx__mapping_1_1InfluxMapper.html#afa7791f1e7cae77c0980f56613196ee5" target="_top" xlink:title="Retrieve a SME value and add it to the Point object.">
<polygon fill="white" stroke="#666666" points="412,-70 224,-70 224,-29 412,-29 412,-70"/>
<text text-anchor="start" x="232" y="-58" font-family="Helvetica,sans-Serif" font-size="10.00">ms_database_connector.core.influx</text>
<text text-anchor="start" x="232" y="-47" font-family="Helvetica,sans-Serif" font-size="10.00">_mapping.InfluxMapper._add</text>
<text text-anchor="middle" x="318" y="-36" font-family="Helvetica,sans-Serif" font-size="10.00">_value_to_point</text>
</a>
</g>
</g>
<!-- Node1&#45;&gt;Node2 -->
<g id="edge1_Node000001_Node000002" class="edge">
<title>Node1&#45;&gt;Node2</title>
<g id="a_edge1_Node000001_Node000002"><a xlink:title=" ">
<path fill="none" stroke="#63b8ff" d="M188.18,-49.5C196.53,-49.5 205.02,-49.5 213.46,-49.5"/>
<polygon fill="#63b8ff" stroke="#63b8ff" points="213.7,-53 223.7,-49.5 213.7,-46 213.7,-53"/>
</a>
</g>
</g>
<!-- Node3 -->
<g id="Node000003" class="node">
<title>Node3</title>
<g id="a_Node000003"><a xlink:href="classms__database__connector_1_1core_1_1influx__mapping_1_1InfluxMapper.html#a98d76ba3511d3e4908da872217487cd5" target="_top" xlink:title="Assign a value to the InfluxDataPoint as field, tag, or timestamp.">
<polygon fill="white" stroke="#666666" points="636,-100 448,-100 448,-59 636,-59 636,-100"/>
<text text-anchor="start" x="456" y="-88" font-family="Helvetica,sans-Serif" font-size="10.00">ms_database_connector.core.influx</text>
<text text-anchor="start" x="456" y="-77" font-family="Helvetica,sans-Serif" font-size="10.00">_mapping.InfluxMapper._assign</text>
<text text-anchor="middle" x="542" y="-66" font-family="Helvetica,sans-Serif" font-size="10.00">_value_to_point</text>
</a>
</g>
</g>
<!-- Node2&#45;&gt;Node3 -->
<g id="edge2_Node000002_Node000003" class="edge">
<title>Node2&#45;&gt;Node3</title>
<g id="a_edge2_Node000002_Node000003"><a xlink:title=" ">
<path fill="none" stroke="#63b8ff" d="M412.18,-62.09C420.63,-63.23 429.21,-64.39 437.73,-65.55"/>
<polygon fill="#63b8ff" stroke="#63b8ff" points="437.32,-69.02 447.7,-66.89 438.26,-62.08 437.32,-69.02"/>
</a>
</g>
</g>
<!-- Node5 -->
<g id="Node000005" class="node">
<title>Node5</title>
<g id="a_Node000005"><a xlink:href="classms__database__connector_1_1core_1_1influx__mapping_1_1InfluxMapper.html#a832e53f47ce860bb05561935483e4001" target="_top" xlink:title="Retrieve the value from a SubmodelElement.">
<polygon fill="white" stroke="#666666" points="636,-41 448,-41 448,0 636,0 636,-41"/>
<text text-anchor="start" x="456" y="-29" font-family="Helvetica,sans-Serif" font-size="10.00">ms_database_connector.core.influx</text>
<text text-anchor="start" x="456" y="-18" font-family="Helvetica,sans-Serif" font-size="10.00">_mapping.InfluxMapper._retrieve</text>
<text text-anchor="middle" x="542" y="-7" font-family="Helvetica,sans-Serif" font-size="10.00">_sme_value</text>
</a>
</g>
</g>
<!-- Node2&#45;&gt;Node5 -->
<g id="edge4_Node000002_Node000005" class="edge">
<title>Node2&#45;&gt;Node5</title>
<g id="a_edge4_Node000002_Node000005"><a xlink:title=" ">
<path fill="none" stroke="#63b8ff" d="M412.18,-37.33C420.63,-36.22 429.21,-35.1 437.73,-33.99"/>
<polygon fill="#63b8ff" stroke="#63b8ff" points="438.24,-37.45 447.7,-32.69 437.33,-30.51 438.24,-37.45"/>
</a>
</g>
</g>
<!-- Node4 -->
<g id="Node000004" class="node">
<title>Node4</title>
<g id="a_Node000004"><a xlink:href="classms__database__connector_1_1core_1_1influx__mapping_1_1InfluxMapper.html#ab490af941c4b10e1aa4f6c382136b1c3" target="_top" xlink:title="Convert different timestamp formats to ISO 8601 format.">
<polygon fill="white" stroke="#666666" points="860,-100 672,-100 672,-59 860,-59 860,-100"/>
<text text-anchor="start" x="680" y="-88" font-family="Helvetica,sans-Serif" font-size="10.00">ms_database_connector.core.influx</text>
<text text-anchor="start" x="680" y="-77" font-family="Helvetica,sans-Serif" font-size="10.00">_mapping.InfluxMapper._convert</text>
<text text-anchor="middle" x="766" y="-66" font-family="Helvetica,sans-Serif" font-size="10.00">_to_iso_timestamp</text>
</a>
</g>
</g>
<!-- Node3&#45;&gt;Node4 -->
<g id="edge3_Node000003_Node000004" class="edge">
<title>Node3&#45;&gt;Node4</title>
<g id="a_edge3_Node000003_Node000004"><a xlink:title=" ">
<path fill="none" stroke="#63b8ff" d="M636.18,-79.5C644.53,-79.5 653.02,-79.5 661.46,-79.5"/>
<polygon fill="#63b8ff" stroke="#63b8ff" points="661.7,-83 671.7,-79.5 661.7,-76 661.7,-83"/>
</a>
</g>
</g>
</g>
</svg>
