<?xml version="1.0" encoding="UTF-8" standalone="no"?>
<!DOCTYPE svg PUBLIC "-//W3C//DTD SVG 1.1//EN"
 "http://www.w3.org/Graphics/SVG/1.1/DTD/svg11.dtd">
<!-- Generated by graphviz version 2.43.0 (0)
 -->
<!-- Title: ms_database_connector.core.influx_mapping.InfluxMapper.map_smes_to_influx Pages: 1 -->
<svg width="897pt" height="127pt"
 viewBox="0.00 0.00 897.00 126.50" xmlns="http://www.w3.org/2000/svg" xmlns:xlink="http://www.w3.org/1999/xlink">
<g id="graph0" class="graph" transform="scale(1 1) rotate(0) translate(4 122.5)">
<title>ms_database_connector.core.influx_mapping.InfluxMapper.map_smes_to_influx</title>
<!-- Node1 -->
<g id="Node000001" class="node">
<title>Node1</title>
<g id="a_Node000001"><a xlink:title="Create InfluxDB data points from mapped SubmodelElements.">
<polygon fill="#999999" stroke="#666666" points="188,-62.5 0,-62.5 0,-21.5 188,-21.5 188,-62.5"/>
<text text-anchor="start" x="8" y="-50.5" font-family="Helvetica,sans-Serif" font-size="10.00">ms_database_connector.core.influx</text>
<text text-anchor="start" x="8" y="-39.5" font-family="Helvetica,sans-Serif" font-size="10.00">_mapping.InfluxMapper.map_smes</text>
<text text-anchor="middle" x="94" y="-28.5" font-family="Helvetica,sans-Serif" font-size="10.00">_to_influx</text>
</a>
</g>
</g>
<!-- Node2 -->
<g id="Node000002" class="node">
<title>Node2</title>
<g id="a_Node000002"><a xlink:href="classms__database__connector_1_1core_1_1influx__mapping_1_1InfluxMapper.html#a247370beae520496a61e9fe3a54efb03" target="_top" xlink:title="Process a single measurement and its mapped sink paths.">
<polygon fill="white" stroke="#666666" points="426.5,-89.5 238.5,-89.5 238.5,-48.5 426.5,-48.5 426.5,-89.5"/>
<text text-anchor="start" x="246.5" y="-77.5" font-family="Helvetica,sans-Serif" font-size="10.00">ms_database_connector.core.influx</text>
<text text-anchor="start" x="246.5" y="-66.5" font-family="Helvetica,sans-Serif" font-size="10.00">_mapping.InfluxMapper._process</text>
<text text-anchor="middle" x="332.5" y="-55.5" font-family="Helvetica,sans-Serif" font-size="10.00">_measurement</text>
</a>
</g>
</g>
<!-- Node1&#45;&gt;Node2 -->
<g id="edge1_Node000001_Node000002" class="edge">
<title>Node1&#45;&gt;Node2</title>
<g id="a_edge1_Node000001_Node000002"><a xlink:title=" ">
<path fill="none" stroke="#63b8ff" d="M188.13,-52.63C201.32,-54.14 214.94,-55.69 228.3,-57.22"/>
<polygon fill="#63b8ff" stroke="#63b8ff" points="228.12,-60.72 238.45,-58.38 228.91,-53.77 228.12,-60.72"/>
</a>
</g>
</g>
<!-- Node6 -->
<g id="Node000006" class="node">
<title>Node6</title>
<g id="a_Node000006"><a xlink:href="classms__database__connector_1_1utils_1_1mapping__handler_1_1DbMappingHandler.html#a164b5f7ab94db507c49b1416c119d1a1" target="_top" xlink:title=" ">
<polygon fill="white" stroke="#666666" points="441,-30 224,-30 224,0 441,0 441,-30"/>
<text text-anchor="start" x="232" y="-18" font-family="Helvetica,sans-Serif" font-size="10.00">ms_database_connector.utils.mapping</text>
<text text-anchor="middle" x="332.5" y="-7" font-family="Helvetica,sans-Serif" font-size="10.00">_handler.DbMappingHandler.db_mapping</text>
</a>
</g>
</g>
<!-- Node1&#45;&gt;Node6 -->
<g id="edge5_Node000001_Node000006" class="edge">
<title>Node1&#45;&gt;Node6</title>
<g id="a_edge5_Node000001_Node000006"><a xlink:title=" ">
<path fill="none" stroke="#63b8ff" d="M188.13,-31.37C196.59,-30.4 205.22,-29.42 213.85,-28.43"/>
<polygon fill="#63b8ff" stroke="#63b8ff" points="214.43,-31.89 223.97,-27.28 213.64,-24.93 214.43,-31.89"/>
</a>
</g>
</g>
<!-- Node3 -->
<g id="Node000003" class="node">
<title>Node3</title>
<g id="a_Node000003"><a xlink:href="classms__database__connector_1_1core_1_1influx__mapping_1_1InfluxMapper.html#afa7791f1e7cae77c0980f56613196ee5" target="_top" xlink:title="Retrieve a SME value and add it to the Point object.">
<polygon fill="white" stroke="#666666" points="665,-118.5 477,-118.5 477,-77.5 665,-77.5 665,-118.5"/>
<text text-anchor="start" x="485" y="-106.5" font-family="Helvetica,sans-Serif" font-size="10.00">ms_database_connector.core.influx</text>
<text text-anchor="start" x="485" y="-95.5" font-family="Helvetica,sans-Serif" font-size="10.00">_mapping.InfluxMapper._add</text>
<text text-anchor="middle" x="571" y="-84.5" font-family="Helvetica,sans-Serif" font-size="10.00">_value_to_point</text>
</a>
</g>
</g>
<!-- Node2&#45;&gt;Node3 -->
<g id="edge2_Node000002_Node000003" class="edge">
<title>Node2&#45;&gt;Node3</title>
<g id="a_edge2_Node000002_Node000003"><a xlink:title=" ">
<path fill="none" stroke="#63b8ff" d="M426.63,-80.42C439.82,-82.04 453.44,-83.71 466.8,-85.35"/>
<polygon fill="#63b8ff" stroke="#63b8ff" points="466.6,-88.85 476.95,-86.59 467.45,-81.9 466.6,-88.85"/>
</a>
</g>
</g>
<!-- Node5 -->
<g id="Node000005" class="node">
<title>Node5</title>
<g id="a_Node000005"><a xlink:href="classms__database__connector_1_1core_1_1influx__mapping_1_1InfluxMapper.html#a832e53f47ce860bb05561935483e4001" target="_top" xlink:title="Retrieve the value from a SubmodelElement.">
<polygon fill="white" stroke="#666666" points="665,-59.5 477,-59.5 477,-18.5 665,-18.5 665,-59.5"/>
<text text-anchor="start" x="485" y="-47.5" font-family="Helvetica,sans-Serif" font-size="10.00">ms_database_connector.core.influx</text>
<text text-anchor="start" x="485" y="-36.5" font-family="Helvetica,sans-Serif" font-size="10.00">_mapping.InfluxMapper._retrieve</text>
<text text-anchor="middle" x="571" y="-25.5" font-family="Helvetica,sans-Serif" font-size="10.00">_sme_value</text>
</a>
</g>
</g>
<!-- Node2&#45;&gt;Node5 -->
<g id="edge4_Node000002_Node000005" class="edge">
<title>Node2&#45;&gt;Node5</title>
<g id="a_edge4_Node000002_Node000005"><a xlink:title=" ">
<path fill="none" stroke="#63b8ff" d="M426.63,-57.19C439.82,-55.51 453.44,-53.79 466.8,-52.09"/>
<polygon fill="#63b8ff" stroke="#63b8ff" points="467.47,-55.53 476.95,-50.8 466.59,-48.59 467.47,-55.53"/>
</a>
</g>
</g>
<!-- Node4 -->
<g id="Node000004" class="node">
<title>Node4</title>
<g id="a_Node000004"><a xlink:href="classms__database__connector_1_1core_1_1influx__mapping_1_1InfluxMapper.html#a98d76ba3511d3e4908da872217487cd5" target="_top" xlink:title="Assign a value to the InfluxDataPoint as field, tag, or timestamp.">
<polygon fill="white" stroke="#666666" points="889,-118.5 701,-118.5 701,-77.5 889,-77.5 889,-118.5"/>
<text text-anchor="start" x="709" y="-106.5" font-family="Helvetica,sans-Serif" font-size="10.00">ms_database_connector.core.influx</text>
<text text-anchor="start" x="709" y="-95.5" font-family="Helvetica,sans-Serif" font-size="10.00">_mapping.InfluxMapper._assign</text>
<text text-anchor="middle" x="795" y="-84.5" font-family="Helvetica,sans-Serif" font-size="10.00">_value_to_point</text>
</a>
</g>
</g>
<!-- Node3&#45;&gt;Node4 -->
<g id="edge3_Node000003_Node000004" class="edge">
<title>Node3&#45;&gt;Node4</title>
<g id="a_edge3_Node000003_Node000004"><a xlink:title=" ">
<path fill="none" stroke="#63b8ff" d="M665.18,-98C673.53,-98 682.02,-98 690.46,-98"/>
<polygon fill="#63b8ff" stroke="#63b8ff" points="690.7,-101.5 700.7,-98 690.7,-94.5 690.7,-101.5"/>
</a>
</g>
</g>
</g>
</svg>
