<?xml version="1.0" encoding="UTF-8" standalone="no"?>
<!DOCTYPE svg PUBLIC "-//W3C//DTD SVG 1.1//EN"
 "http://www.w3.org/Graphics/SVG/1.1/DTD/svg11.dtd">
<!-- Generated by graphviz version 2.43.0 (0)
 -->
<!-- Title: ms_database_connector.config.db_mapping.RawDbMapping Pages: 1 -->
<svg width="479pt" height="225pt"
 viewBox="0.00 0.00 479.00 225.00" xmlns="http://www.w3.org/2000/svg" xmlns:xlink="http://www.w3.org/1999/xlink">
<g id="graph0" class="graph" transform="scale(1 1) rotate(0) translate(4 221)">
<title>ms_database_connector.config.db_mapping.RawDbMapping</title>
<!-- Node1 -->
<g id="Node000001" class="node">
<title>Node1</title>
<g id="a_Node000001"><a xlink:title="Raw AIMC&#45;to&#45;InfluxDB mapping with optional unfilled entries.">
<polygon fill="#999999" stroke="#666666" points="182,-30 0,-30 0,0 182,0 182,-30"/>
<text text-anchor="start" x="8" y="-18" font-family="Helvetica,sans-Serif" font-size="10.00">ms_database_connector.config.db</text>
<text text-anchor="middle" x="91" y="-7" font-family="Helvetica,sans-Serif" font-size="10.00">_mapping.RawDbMapping</text>
</a>
</g>
</g>
<!-- Node2 -->
<g id="Node000002" class="node">
<title>Node2</title>
<g id="a_Node000002"><a xlink:title=" ">
<polygon fill="white" stroke="#666666" points="119.5,-156.5 50.5,-156.5 50.5,-137.5 119.5,-137.5 119.5,-156.5"/>
<text text-anchor="middle" x="85" y="-144.5" font-family="Helvetica,sans-Serif" font-size="10.00">RootModel</text>
</a>
</g>
</g>
<!-- Node2&#45;&gt;Node1 -->
<g id="edge1_Node000001_Node000002" class="edge">
<title>Node2&#45;&gt;Node1</title>
<g id="a_edge1_Node000001_Node000002"><a xlink:title=" ">
<path fill="none" stroke="#63b8ff" d="M85.86,-127.32C87.08,-101 89.26,-53.61 90.35,-30.07"/>
<polygon fill="#63b8ff" stroke="#63b8ff" points="82.36,-127.32 85.39,-137.47 89.35,-127.64 82.36,-127.32"/>
</a>
</g>
</g>
<!-- Node5 -->
<g id="Node000005" class="node">
<title>Node5</title>
<g id="a_Node000005"><a xlink:href="classms__database__connector_1_1config_1_1db__mapping_1_1RawMeasurementMapping.html" target="_top" xlink:title="Raw measurement mapping allowing None values for unfilled templates.">
<polygon fill="white" stroke="#666666" points="336,-96 138,-96 138,-66 336,-66 336,-96"/>
<text text-anchor="start" x="146" y="-84" font-family="Helvetica,sans-Serif" font-size="10.00">ms_database_connector.config.db</text>
<text text-anchor="middle" x="237" y="-73" font-family="Helvetica,sans-Serif" font-size="10.00">_mapping.RawMeasurementMapping</text>
</a>
</g>
</g>
<!-- Node2&#45;&gt;Node5 -->
<g id="edge5_Node000005_Node000002" class="edge">
<title>Node2&#45;&gt;Node5</title>
<g id="a_edge5_Node000005_Node000002"><a xlink:title=" ">
<path fill="none" stroke="#63b8ff" d="M115.01,-133.36C140.5,-122.63 177.04,-107.25 203.48,-96.12"/>
<polygon fill="#63b8ff" stroke="#63b8ff" points="113.36,-130.26 105.5,-137.37 116.07,-136.71 113.36,-130.26"/>
</a>
</g>
</g>
<!-- Node3 -->
<g id="Node000003" class="node">
<title>Node3</title>
<g id="a_Node000003"><a xlink:title=" ">
<polygon fill="white" stroke="#666666" points="172.5,-156.5 137.5,-156.5 137.5,-137.5 172.5,-137.5 172.5,-156.5"/>
<text text-anchor="middle" x="155" y="-144.5" font-family="Helvetica,sans-Serif" font-size="10.00">dict</text>
</a>
</g>
</g>
<!-- Node3&#45;&gt;Node1 -->
<g id="edge2_Node000001_Node000003" class="edge">
<title>Node3&#45;&gt;Node1</title>
<g id="a_edge2_Node000001_Node000003"><a xlink:title=" ">
<path fill="none" stroke="#63b8ff" d="M145.6,-128.31C140.59,-118.78 134.37,-106.79 129,-96 117.63,-73.15 105.03,-46.29 97.57,-30.24"/>
<polygon fill="#63b8ff" stroke="#63b8ff" points="142.53,-129.99 150.3,-137.2 148.72,-126.72 142.53,-129.99"/>
</a>
</g>
</g>
<!-- Node3&#45;&gt;Node5 -->
<g id="edge6_Node000005_Node000003" class="edge">
<title>Node3&#45;&gt;Node5</title>
<g id="a_edge6_Node000005_Node000003"><a xlink:title=" ">
<path fill="none" stroke="#63b8ff" d="M174.2,-131.02C187.7,-120.48 205.66,-106.46 218.91,-96.12"/>
<polygon fill="#63b8ff" stroke="#63b8ff" points="171.79,-128.46 166.06,-137.37 176.1,-133.98 171.79,-128.46"/>
</a>
</g>
</g>
<!-- Node4 -->
<g id="Node000004" class="node">
<title>Node4</title>
<g id="a_Node000004"><a xlink:title=" ">
<polygon fill="white" stroke="#666666" points="215.5,-217 186.5,-217 186.5,-198 215.5,-198 215.5,-217"/>
<text text-anchor="middle" x="201" y="-205" font-family="Helvetica,sans-Serif" font-size="10.00">str</text>
</a>
</g>
</g>
<!-- Node4&#45;&gt;Node1 -->
<g id="edge3_Node000001_Node000004" class="edge">
<title>Node4&#45;&gt;Node1</title>
<g id="a_edge3_Node000001_Node000004"><a xlink:title=" ">
<path fill="none" stroke="#63b8ff" d="M176.42,-203.29C135.77,-197.42 57.37,-183.55 41,-162 9.55,-120.61 54.48,-58.11 78.09,-30.26"/>
<polygon fill="#63b8ff" stroke="#63b8ff" points="175.96,-206.76 186.35,-204.67 176.92,-199.83 175.96,-206.76"/>
</a>
</g>
</g>
<!-- Node4&#45;&gt;Node5 -->
<g id="edge7_Node000005_Node000004" class="edge">
<title>Node4&#45;&gt;Node5</title>
<g id="a_edge7_Node000005_Node000004"><a xlink:title=" ">
<path fill="none" stroke="#63b8ff" d="M205.39,-187.6C209.01,-172.47 214.43,-150.76 220,-132 223.6,-119.87 228.26,-106.29 231.79,-96.35"/>
<polygon fill="#63b8ff" stroke="#63b8ff" points="201.89,-187.19 203,-197.72 208.7,-188.79 201.89,-187.19"/>
</a>
</g>
</g>
<!-- Node6 -->
<g id="Node000006" class="node">
<title>Node6</title>
<g id="a_Node000006"><a xlink:href="classms__database__connector_1_1config_1_1db__mapping_1_1MappingTargetType.html" target="_top" xlink:title="Enumeration of supported InfluxDB target types for mapped fields.">
<polygon fill="white" stroke="#666666" points="411,-162 229,-162 229,-132 411,-132 411,-162"/>
<text text-anchor="start" x="237" y="-150" font-family="Helvetica,sans-Serif" font-size="10.00">ms_database_connector.config.db</text>
<text text-anchor="middle" x="320" y="-139" font-family="Helvetica,sans-Serif" font-size="10.00">_mapping.MappingTargetType</text>
</a>
</g>
</g>
<!-- Node4&#45;&gt;Node6 -->
<g id="edge9_Node000006_Node000004" class="edge">
<title>Node4&#45;&gt;Node6</title>
<g id="a_edge9_Node000006_Node000004"><a xlink:title=" ">
<path fill="none" stroke="#63b8ff" d="M224.8,-194.8C243.92,-185.4 270.84,-172.17 291.17,-162.17"/>
<polygon fill="#63b8ff" stroke="#63b8ff" points="223.02,-191.77 215.59,-199.33 226.11,-198.06 223.02,-191.77"/>
</a>
</g>
</g>
<!-- Node5&#45;&gt;Node1 -->
<g id="edge4_Node000001_Node000005" class="edge">
<title>Node5&#45;&gt;Node1</title>
<g id="a_edge4_Node000001_Node000005"><a xlink:title=" ">
<path fill="none" stroke="#63b8ff" d="M195.75,-61.92C172.68,-51.8 144.34,-39.38 122.97,-30.01"/>
<polygon fill="#63b8ff" stroke="#63b8ff" points="194.4,-65.15 204.96,-65.95 197.21,-58.73 194.4,-65.15"/>
</a>
</g>
</g>
<!-- Node6&#45;&gt;Node5 -->
<g id="edge8_Node000005_Node000006" class="edge">
<title>Node6&#45;&gt;Node5</title>
<g id="a_edge8_Node000005_Node000006"><a xlink:title=" ">
<path fill="none" stroke="#63b8ff" d="M293.39,-125.48C280.98,-115.91 266.53,-104.77 255.37,-96.16"/>
<polygon fill="#63b8ff" stroke="#63b8ff" points="291.52,-128.46 301.58,-131.8 295.8,-122.92 291.52,-128.46"/>
</a>
</g>
</g>
<!-- Node7 -->
<g id="Node000007" class="node">
<title>Node7</title>
<g id="a_Node000007"><a xlink:title=" ">
<polygon fill="white" stroke="#666666" points="342,-217 298,-217 298,-198 342,-198 342,-217"/>
<text text-anchor="middle" x="320" y="-205" font-family="Helvetica,sans-Serif" font-size="10.00">Enum</text>
</a>
</g>
</g>
<!-- Node7&#45;&gt;Node6 -->
<g id="edge10_Node000006_Node000007" class="edge">
<title>Node7&#45;&gt;Node6</title>
<g id="a_edge10_Node000006_Node000007"><a xlink:title=" ">
<path fill="none" stroke="#63b8ff" d="M320,-187.65C320,-179.36 320,-169.78 320,-162.11"/>
<polygon fill="#63b8ff" stroke="#63b8ff" points="316.5,-187.87 320,-197.87 323.5,-187.87 316.5,-187.87"/>
</a>
</g>
</g>
<!-- Node8 -->
<g id="Node000008" class="node">
<title>Node8</title>
<g id="a_Node000008"><a xlink:title=" ">
<polygon fill="white" stroke="#666666" points="471,-156.5 429,-156.5 429,-137.5 471,-137.5 471,-156.5"/>
<text text-anchor="middle" x="450" y="-144.5" font-family="Helvetica,sans-Serif" font-size="10.00">None</text>
</a>
</g>
</g>
<!-- Node8&#45;&gt;Node5 -->
<g id="edge11_Node000005_Node000008" class="edge">
<title>Node8&#45;&gt;Node5</title>
<g id="a_edge11_Node000005_Node000008"><a xlink:title=" ">
<path fill="none" stroke="#63b8ff" d="M423.68,-133.42C422.45,-132.92 421.21,-132.45 420,-132 380.27,-117.42 334.32,-104.88 298.4,-96"/>
<polygon fill="#63b8ff" stroke="#63b8ff" points="422.51,-136.72 433.08,-137.49 425.3,-130.3 422.51,-136.72"/>
</a>
</g>
</g>
</g>
</svg>
