<?xml version="1.0" encoding="UTF-8" standalone="no"?>
<!DOCTYPE svg PUBLIC "-//W3C//DTD SVG 1.1//EN"
 "http://www.w3.org/Graphics/SVG/1.1/DTD/svg11.dtd">
<!-- Generated by graphviz version 2.43.0 (0)
 -->
<!-- Title: ms_database_connector.core.server_handling.ServerHandler.connect_to_server Pages: 1 -->
<svg width="656pt" height="167pt"
 viewBox="0.00 0.00 656.00 167.00" xmlns="http://www.w3.org/2000/svg" xmlns:xlink="http://www.w3.org/1999/xlink">
<g id="graph0" class="graph" transform="scale(1 1) rotate(0) translate(4 163)">
<title>ms_database_connector.core.server_handling.ServerHandler.connect_to_server</title>
<!-- Node1 -->
<g id="Node000001" class="node">
<title>Node1</title>
<g id="a_Node000001"><a xlink:title="Initialize all configured registry clients and repository wrappers.">
<polygon fill="#999999" stroke="#666666" points="192,-100 0,-100 0,-59 192,-59 192,-100"/>
<text text-anchor="start" x="8" y="-88" font-family="Helvetica,sans-Serif" font-size="10.00">ms_database_connector.core.server</text>
<text text-anchor="start" x="8" y="-77" font-family="Helvetica,sans-Serif" font-size="10.00">_handling.ServerHandler.connect</text>
<text text-anchor="middle" x="96" y="-66" font-family="Helvetica,sans-Serif" font-size="10.00">_to_server</text>
</a>
</g>
</g>
<!-- Node2 -->
<g id="Node000002" class="node">
<title>Node2</title>
<g id="a_Node000002"><a xlink:href="classms__database__connector_1_1core_1_1server__handling_1_1ServerHandler.html#a89d65e48026434ee18bca41921ed1887" target="_top" xlink:title="Create and store the AAS registry client.">
<polygon fill="white" stroke="#666666" points="420,-159 228,-159 228,-118 420,-118 420,-159"/>
<text text-anchor="start" x="236" y="-147" font-family="Helvetica,sans-Serif" font-size="10.00">ms_database_connector.core.server</text>
<text text-anchor="start" x="236" y="-136" font-family="Helvetica,sans-Serif" font-size="10.00">_handling.ServerHandler.connect</text>
<text text-anchor="middle" x="324" y="-125" font-family="Helvetica,sans-Serif" font-size="10.00">_to_aas_registry</text>
</a>
</g>
</g>
<!-- Node1&#45;&gt;Node2 -->
<g id="edge1_Node000001_Node000002" class="edge">
<title>Node1&#45;&gt;Node2</title>
<g id="a_edge1_Node000001_Node000002"><a xlink:title=" ">
<path fill="none" stroke="#63b8ff" d="M175.73,-100.05C194.69,-105 215.07,-110.32 234.45,-115.38"/>
<polygon fill="#63b8ff" stroke="#63b8ff" points="233.61,-118.78 244.17,-117.92 235.38,-112.01 233.61,-118.78"/>
</a>
</g>
</g>
<!-- Node4 -->
<g id="Node000004" class="node">
<title>Node4</title>
<g id="a_Node000004"><a xlink:href="classms__database__connector_1_1core_1_1server__handling_1_1ServerHandler.html#af1b10255c7b579ee36be438c56db18fc" target="_top" xlink:title="Create and cache wrappers for configured repository servers.">
<polygon fill="white" stroke="#666666" points="420,-100 228,-100 228,-59 420,-59 420,-100"/>
<text text-anchor="start" x="236" y="-88" font-family="Helvetica,sans-Serif" font-size="10.00">ms_database_connector.core.server</text>
<text text-anchor="start" x="236" y="-77" font-family="Helvetica,sans-Serif" font-size="10.00">_handling.ServerHandler.connect</text>
<text text-anchor="middle" x="324" y="-66" font-family="Helvetica,sans-Serif" font-size="10.00">_to_repo_server</text>
</a>
</g>
</g>
<!-- Node1&#45;&gt;Node4 -->
<g id="edge3_Node000001_Node000004" class="edge">
<title>Node1&#45;&gt;Node4</title>
<g id="a_edge3_Node000001_Node000004"><a xlink:title=" ">
<path fill="none" stroke="#63b8ff" d="M192.19,-79.5C200.69,-79.5 209.32,-79.5 217.9,-79.5"/>
<polygon fill="#63b8ff" stroke="#63b8ff" points="217.92,-83 227.92,-79.5 217.92,-76 217.92,-83"/>
</a>
</g>
</g>
<!-- Node5 -->
<g id="Node000005" class="node">
<title>Node5</title>
<g id="a_Node000005"><a xlink:href="classms__database__connector_1_1core_1_1server__handling_1_1ServerHandler.html#ab55b854c91c5ba62e8ecaeef8b252b34" target="_top" xlink:title="Create and store the Submodel registry client.">
<polygon fill="white" stroke="#666666" points="420,-41 228,-41 228,0 420,0 420,-41"/>
<text text-anchor="start" x="236" y="-29" font-family="Helvetica,sans-Serif" font-size="10.00">ms_database_connector.core.server</text>
<text text-anchor="start" x="236" y="-18" font-family="Helvetica,sans-Serif" font-size="10.00">_handling.ServerHandler.connect</text>
<text text-anchor="middle" x="324" y="-7" font-family="Helvetica,sans-Serif" font-size="10.00">_to_sm_registry</text>
</a>
</g>
</g>
<!-- Node1&#45;&gt;Node5 -->
<g id="edge5_Node000001_Node000005" class="edge">
<title>Node1&#45;&gt;Node5</title>
<g id="a_edge5_Node000001_Node000005"><a xlink:title=" ">
<path fill="none" stroke="#63b8ff" d="M175.73,-58.95C194.69,-54 215.07,-48.68 234.45,-43.62"/>
<polygon fill="#63b8ff" stroke="#63b8ff" points="235.38,-46.99 244.17,-41.08 233.61,-40.22 235.38,-46.99"/>
</a>
</g>
</g>
<!-- Node3 -->
<g id="Node000003" class="node">
<title>Node3</title>
<g id="a_Node000003"><a xlink:href="namespacems__database__connector_1_1core_1_1server__handling.html#afd67e9d96c090023ed685d99b1f51468" target="_top" xlink:title="Create an AAS SDK wrapper from server configuration and secret.">
<polygon fill="white" stroke="#666666" points="648,-94.5 456,-94.5 456,-64.5 648,-64.5 648,-94.5"/>
<text text-anchor="start" x="464" y="-82.5" font-family="Helvetica,sans-Serif" font-size="10.00">ms_database_connector.core.server</text>
<text text-anchor="middle" x="552" y="-71.5" font-family="Helvetica,sans-Serif" font-size="10.00">_handling.connect_to_aas_server</text>
</a>
</g>
</g>
<!-- Node2&#45;&gt;Node3 -->
<g id="edge2_Node000002_Node000003" class="edge">
<title>Node2&#45;&gt;Node3</title>
<g id="a_edge2_Node000002_Node000003"><a xlink:title=" ">
<path fill="none" stroke="#63b8ff" d="M403.73,-117.95C429.71,-111.17 458.35,-103.69 483.42,-97.14"/>
<polygon fill="#63b8ff" stroke="#63b8ff" points="484.41,-100.5 493.2,-94.59 482.64,-93.73 484.41,-100.5"/>
</a>
</g>
</g>
<!-- Node4&#45;&gt;Node3 -->
<g id="edge4_Node000004_Node000003" class="edge">
<title>Node4&#45;&gt;Node3</title>
<g id="a_edge4_Node000004_Node000003"><a xlink:title=" ">
<path fill="none" stroke="#63b8ff" d="M420.19,-79.5C428.69,-79.5 437.32,-79.5 445.9,-79.5"/>
<polygon fill="#63b8ff" stroke="#63b8ff" points="445.92,-83 455.92,-79.5 445.92,-76 445.92,-83"/>
</a>
</g>
</g>
<!-- Node5&#45;&gt;Node3 -->
<g id="edge6_Node000005_Node000003" class="edge">
<title>Node5&#45;&gt;Node3</title>
<g id="a_edge6_Node000005_Node000003"><a xlink:title=" ">
<path fill="none" stroke="#63b8ff" d="M403.73,-41.05C429.71,-47.83 458.35,-55.31 483.42,-61.86"/>
<polygon fill="#63b8ff" stroke="#63b8ff" points="482.64,-65.27 493.2,-64.41 484.41,-58.5 482.64,-65.27"/>
</a>
</g>
</g>
</g>
</svg>
