<?xml version="1.0" encoding="UTF-8" standalone="no"?>
<!DOCTYPE svg PUBLIC "-//W3C//DTD SVG 1.1//EN"
 "http://www.w3.org/Graphics/SVG/1.1/DTD/svg11.dtd">
<!-- Generated by graphviz version 2.43.0 (0)
 -->
<!-- Title: Graphical Class Hierarchy Pages: 1 -->
<svg width="722pt" height="350pt"
 viewBox="0.00 0.00 722.00 349.94" xmlns="http://www.w3.org/2000/svg" xmlns:xlink="http://www.w3.org/1999/xlink">
<g id="graph0" class="graph" transform="scale(1 1) rotate(0) translate(4 345.94)">
<title>Graphical Class Hierarchy</title>
<!-- Node0 -->
<g id="Node000000" class="node">
<title>Node0</title>
<g id="a_Node000000"><a xlink:title=" ">
<polygon fill="#e0e0e0" stroke="#999999" points="188.5,-275.17 153.5,-275.17 153.5,-256.17 188.5,-256.17 188.5,-275.17"/>
<text text-anchor="middle" x="171" y="-263.17" font-family="Helvetica,sans-Serif" font-size="10.00">dict</text>
</a>
</g>
</g>
<!-- Node1 -->
<g id="Node000001" class="node">
<title>Node1</title>
<g id="a_Node000001"><a xlink:href="classms__database__connector_1_1config_1_1db__mapping_1_1DbMapping.html" target="_top" xlink:title="Complete AIMC&#45;to&#45;InfluxDB field mapping configuration.">
<polygon fill="white" stroke="#666666" points="714,-279.67 532,-279.67 532,-249.67 714,-249.67 714,-279.67"/>
<text text-anchor="start" x="540" y="-267.67" font-family="Helvetica,sans-Serif" font-size="10.00">ms_database_connector.config.db</text>
<text text-anchor="middle" x="623" y="-256.67" font-family="Helvetica,sans-Serif" font-size="10.00">_mapping.DbMapping</text>
</a>
</g>
</g>
<!-- Node0&#45;&gt;Node1 -->
<g id="edge4_Node000000_Node000001" class="edge">
<title>Node0&#45;&gt;Node1</title>
<g id="a_edge4_Node000000_Node000001"><a xlink:title=" ">
<path fill="none" stroke="#63b8ff" d="M198.64,-270.05C224.08,-273.99 263.53,-279.49 298,-281.67 385.82,-287.23 408.2,-287.57 496,-281.67 507.67,-280.89 519.91,-279.7 531.98,-278.31"/>
<polygon fill="#63b8ff" stroke="#63b8ff" points="199.07,-266.57 188.65,-268.47 197.98,-273.49 199.07,-266.57"/>
</a>
</g>
</g>
<!-- Node2 -->
<g id="Node000002" class="node">
<title>Node2</title>
<g id="a_Node000002"><a xlink:href="classms__database__connector_1_1config_1_1db__mapping_1_1MeasurementMapping.html" target="_top" xlink:title="Mapping configuration for a single InfluxDB measurement.">
<polygon fill="white" stroke="#666666" points="488,-239.67 306,-239.67 306,-209.67 488,-209.67 488,-239.67"/>
<text text-anchor="start" x="314" y="-227.67" font-family="Helvetica,sans-Serif" font-size="10.00">ms_database_connector.config.db</text>
<text text-anchor="middle" x="397" y="-216.67" font-family="Helvetica,sans-Serif" font-size="10.00">_mapping.MeasurementMapping</text>
</a>
</g>
</g>
<!-- Node0&#45;&gt;Node2 -->
<g id="edge5_Node000000_Node000002" class="edge">
<title>Node0&#45;&gt;Node2</title>
<g id="a_edge5_Node000000_Node000002"><a xlink:title=" ">
<path fill="none" stroke="#63b8ff" d="M198.78,-260.77C227.12,-255.58 273.27,-247.14 313.81,-239.72"/>
<polygon fill="#63b8ff" stroke="#63b8ff" points="198.04,-257.35 188.84,-262.59 199.3,-264.23 198.04,-257.35"/>
</a>
</g>
</g>
<!-- Node5 -->
<g id="Node000005" class="node">
<title>Node5</title>
<g id="a_Node000005"><a xlink:href="classms__database__connector_1_1config_1_1db__mapping_1_1RawDbMapping.html" target="_top" xlink:title="Raw AIMC&#45;to&#45;InfluxDB mapping with optional unfilled entries.">
<polygon fill="white" stroke="#666666" points="714,-137.67 532,-137.67 532,-107.67 714,-107.67 714,-137.67"/>
<text text-anchor="start" x="540" y="-125.67" font-family="Helvetica,sans-Serif" font-size="10.00">ms_database_connector.config.db</text>
<text text-anchor="middle" x="623" y="-114.67" font-family="Helvetica,sans-Serif" font-size="10.00">_mapping.RawDbMapping</text>
</a>
</g>
</g>
<!-- Node0&#45;&gt;Node5 -->
<g id="edge7_Node000000_Node000005" class="edge">
<title>Node0&#45;&gt;Node5</title>
<g id="a_edge7_Node000000_Node000005"><a xlink:title=" ">
<path fill="none" stroke="#63b8ff" d="M198.88,-270.47C256.36,-279.44 394.24,-293.98 496,-248.67 550.26,-224.51 594.01,-165.72 612.49,-137.83"/>
<polygon fill="#63b8ff" stroke="#63b8ff" points="199.24,-266.98 188.8,-268.82 198.11,-273.89 199.24,-266.98"/>
</a>
</g>
</g>
<!-- Node4 -->
<g id="Node000004" class="node">
<title>Node4</title>
<g id="a_Node000004"><a xlink:href="classms__database__connector_1_1config_1_1db__mapping_1_1RawMeasurementMapping.html" target="_top" xlink:title="Raw measurement mapping allowing None values for unfilled templates.">
<polygon fill="white" stroke="#666666" points="496,-115.67 298,-115.67 298,-85.67 496,-85.67 496,-115.67"/>
<text text-anchor="start" x="306" y="-103.67" font-family="Helvetica,sans-Serif" font-size="10.00">ms_database_connector.config.db</text>
<text text-anchor="middle" x="397" y="-92.67" font-family="Helvetica,sans-Serif" font-size="10.00">_mapping.RawMeasurementMapping</text>
</a>
</g>
</g>
<!-- Node0&#45;&gt;Node4 -->
<g id="edge8_Node000000_Node000004" class="edge">
<title>Node0&#45;&gt;Node4</title>
<g id="a_edge8_Node000000_Node000004"><a xlink:title=" ">
<path fill="none" stroke="#63b8ff" d="M195.81,-250.51C214.15,-238.66 240,-221.59 262,-205.67 304.38,-175.01 352.22,-136.55 377.7,-115.74"/>
<polygon fill="#63b8ff" stroke="#63b8ff" points="193.73,-247.69 187.21,-256.04 197.51,-253.58 193.73,-247.69"/>
</a>
</g>
</g>
<!-- Node2&#45;&gt;Node1 -->
<g id="edge6_Node000002_Node000001" class="edge">
<title>Node2&#45;&gt;Node1</title>
<g id="a_edge6_Node000002_Node000001"><a xlink:title=" ">
<path fill="none" stroke="#63b8ff" d="M491.97,-241.45C507.2,-244.17 522.88,-246.97 537.85,-249.65"/>
<polygon fill="#63b8ff" stroke="#63b8ff" points="492.51,-237.99 482.05,-239.68 491.28,-244.88 492.51,-237.99"/>
</a>
</g>
</g>
<!-- Node4&#45;&gt;Node5 -->
<g id="edge9_Node000004_Node000005" class="edge">
<title>Node4&#45;&gt;Node5</title>
<g id="a_edge9_Node000004_Node000005"><a xlink:title=" ">
<path fill="none" stroke="#63b8ff" d="M506.3,-111.31C514.89,-112.15 523.51,-113 531.95,-113.83"/>
<polygon fill="#63b8ff" stroke="#63b8ff" points="506.54,-107.82 496.25,-110.32 505.86,-114.78 506.54,-107.82"/>
</a>
</g>
</g>
<!-- Node8 -->
<g id="Node000008" class="node">
<title>Node8</title>
<g id="a_Node000008"><a xlink:title=" ">
<polygon fill="#e0e0e0" stroke="#999999" points="192,-72.17 150,-72.17 150,-53.17 192,-53.17 192,-72.17"/>
<text text-anchor="middle" x="171" y="-60.17" font-family="Helvetica,sans-Serif" font-size="10.00">None</text>
</a>
</g>
</g>
<!-- Node8&#45;&gt;Node4 -->
<g id="edge10_Node000008_Node000004" class="edge">
<title>Node8&#45;&gt;Node4</title>
<g id="a_edge10_Node000008_Node000004"><a xlink:title=" ">
<path fill="none" stroke="#63b8ff" d="M202.25,-67.81C229.27,-72.39 270.23,-79.34 307.53,-85.67"/>
<polygon fill="#63b8ff" stroke="#63b8ff" points="202.72,-64.33 192.27,-66.11 201.55,-71.24 202.72,-64.33"/>
</a>
</g>
</g>
<!-- Node6 -->
<g id="Node000006" class="node">
<title>Node6</title>
<g id="a_Node000006"><a xlink:title=" ">
<polygon fill="#e0e0e0" stroke="#999999" points="36.5,-158.17 7.5,-158.17 7.5,-139.17 36.5,-139.17 36.5,-158.17"/>
<text text-anchor="middle" x="22" y="-146.17" font-family="Helvetica,sans-Serif" font-size="10.00">str</text>
</a>
</g>
</g>
<!-- Node6&#45;&gt;Node1 -->
<g id="edge11_Node000006_Node000001" class="edge">
<title>Node6&#45;&gt;Node1</title>
<g id="a_edge11_Node000006_Node000001"><a xlink:title=" ">
<path fill="none" stroke="#63b8ff" d="M24.9,-168.65C29,-199.37 41.67,-257.49 80,-284.67 237.85,-396.59 491.53,-315.94 585.48,-279.77"/>
<polygon fill="#63b8ff" stroke="#63b8ff" points="28.33,-167.88 23.71,-158.34 21.38,-168.68 28.33,-167.88"/>
</a>
</g>
</g>
<!-- Node6&#45;&gt;Node2 -->
<g id="edge15_Node000006_Node000002" class="edge">
<title>Node6&#45;&gt;Node2</title>
<g id="a_edge15_Node000006_Node000002"><a xlink:title=" ">
<path fill="none" stroke="#63b8ff" d="M35.5,-166.94C45.75,-180.26 61.54,-197.37 80,-205.67 151.05,-237.63 240.3,-240.03 305.81,-235.8"/>
<polygon fill="#63b8ff" stroke="#63b8ff" points="38.05,-164.49 29.32,-158.48 32.39,-168.62 38.05,-164.49"/>
</a>
</g>
</g>
<!-- Node6&#45;&gt;Node5 -->
<g id="edge16_Node000006_Node000005" class="edge">
<title>Node6&#45;&gt;Node5</title>
<g id="a_edge16_Node000006_Node000005"><a xlink:title=" ">
<path fill="none" stroke="#63b8ff" d="M38.71,-131.17C40.6,-128.73 42.42,-126.19 44,-123.67 64.74,-90.65 47.26,-64.84 80,-43.67 250.29,66.43 512.97,-61.72 595.95,-107.59"/>
<polygon fill="#63b8ff" stroke="#63b8ff" points="35.95,-129.02 32.25,-138.94 41.34,-133.49 35.95,-129.02"/>
</a>
</g>
</g>
<!-- Node6&#45;&gt;Node4 -->
<g id="edge17_Node000006_Node000004" class="edge">
<title>Node6&#45;&gt;Node4</title>
<g id="a_edge17_Node000006_Node000004"><a xlink:title=" ">
<path fill="none" stroke="#63b8ff" d="M46.58,-147.85C89.59,-146.1 183.58,-141.22 262,-129.67 286.02,-126.14 312.17,-120.81 334.94,-115.69"/>
<polygon fill="#63b8ff" stroke="#63b8ff" points="46.41,-144.35 36.55,-148.23 46.67,-151.34 46.41,-144.35"/>
</a>
</g>
</g>
<!-- Node3 -->
<g id="Node000003" class="node">
<title>Node3</title>
<g id="a_Node000003"><a xlink:href="classms__database__connector_1_1config_1_1db__mapping_1_1MappingTargetType.html" target="_top" xlink:title="Enumeration of supported InfluxDB target types for mapped fields.">
<polygon fill="white" stroke="#666666" points="262,-120.67 80,-120.67 80,-90.67 262,-90.67 262,-120.67"/>
<text text-anchor="start" x="88" y="-108.67" font-family="Helvetica,sans-Serif" font-size="10.00">ms_database_connector.config.db</text>
<text text-anchor="middle" x="171" y="-97.67" font-family="Helvetica,sans-Serif" font-size="10.00">_mapping.MappingTargetType</text>
</a>
</g>
</g>
<!-- Node6&#45;&gt;Node3 -->
<g id="edge12_Node000006_Node000003" class="edge">
<title>Node6&#45;&gt;Node3</title>
<g id="a_edge12_Node000006_Node000003"><a xlink:title=" ">
<path fill="none" stroke="#63b8ff" d="M46.34,-141.85C65.71,-136.18 93.99,-127.91 118.61,-120.7"/>
<polygon fill="#63b8ff" stroke="#63b8ff" points="45.18,-138.54 36.57,-144.7 47.15,-145.26 45.18,-138.54"/>
</a>
</g>
</g>
<!-- Node3&#45;&gt;Node2 -->
<g id="edge13_Node000003_Node000002" class="edge">
<title>Node3&#45;&gt;Node2</title>
<g id="a_edge13_Node000003_Node000002"><a xlink:title=" ">
<path fill="none" stroke="#63b8ff" d="M209.41,-125.55C253.95,-149.21 327.32,-188.19 367.51,-209.54"/>
<polygon fill="#63b8ff" stroke="#63b8ff" points="210.84,-122.35 200.37,-120.74 207.56,-128.53 210.84,-122.35"/>
</a>
</g>
</g>
<!-- Node3&#45;&gt;Node4 -->
<g id="edge14_Node000003_Node000004" class="edge">
<title>Node3&#45;&gt;Node4</title>
<g id="a_edge14_Node000003_Node000004"><a xlink:title=" ">
<path fill="none" stroke="#63b8ff" d="M272.16,-103.44C280.74,-103.25 289.41,-103.05 297.98,-102.86"/>
<polygon fill="#63b8ff" stroke="#63b8ff" points="272.06,-99.94 262.14,-103.66 272.22,-106.94 272.06,-99.94"/>
</a>
</g>
</g>
<!-- Node9 -->
<g id="Node000009" class="node">
<title>Node9</title>
<g id="a_Node000009"><a xlink:title=" ">
<polygon fill="#e0e0e0" stroke="#999999" points="44,-115.17 0,-115.17 0,-96.17 44,-96.17 44,-115.17"/>
<text text-anchor="middle" x="22" y="-103.17" font-family="Helvetica,sans-Serif" font-size="10.00">Enum</text>
</a>
</g>
</g>
<!-- Node9&#45;&gt;Node3 -->
<g id="edge18_Node000009_Node000003" class="edge">
<title>Node9&#45;&gt;Node3</title>
<g id="a_edge18_Node000009_Node000003"><a xlink:title=" ">
<path fill="none" stroke="#63b8ff" d="M54.09,-105.67C61.93,-105.67 70.74,-105.67 79.92,-105.67"/>
<polygon fill="#63b8ff" stroke="#63b8ff" points="54.06,-102.17 44.06,-105.67 54.06,-109.17 54.06,-102.17"/>
</a>
</g>
</g>
<!-- Node7 -->
<g id="Node000007" class="node">
<title>Node7</title>
<g id="a_Node000007"><a xlink:title=" ">
<polygon fill="#e0e0e0" stroke="#999999" points="205.5,-196.17 136.5,-196.17 136.5,-177.17 205.5,-177.17 205.5,-196.17"/>
<text text-anchor="middle" x="171" y="-184.17" font-family="Helvetica,sans-Serif" font-size="10.00">RootModel</text>
</a>
</g>
</g>
<!-- Node7&#45;&gt;Node1 -->
<g id="edge19_Node000007_Node000001" class="edge">
<title>Node7&#45;&gt;Node1</title>
<g id="a_edge19_Node000007_Node000001"><a xlink:title=" ">
<path fill="none" stroke="#63b8ff" d="M215.81,-182.77C278.91,-178.44 398.5,-175.09 496,-200.67 534.68,-210.82 575.19,-233.99 599.51,-249.49"/>
<polygon fill="#63b8ff" stroke="#63b8ff" points="215.53,-179.28 205.81,-183.5 216.04,-186.26 215.53,-179.28"/>
</a>
</g>
</g>
<!-- Node7&#45;&gt;Node2 -->
<g id="edge20_Node000007_Node000002" class="edge">
<title>Node7&#45;&gt;Node2</title>
<g id="a_edge20_Node000007_Node000002"><a xlink:title=" ">
<path fill="none" stroke="#63b8ff" d="M215.5,-194.05C241.64,-198.49 275.88,-204.3 307.5,-209.66"/>
<polygon fill="#63b8ff" stroke="#63b8ff" points="215.98,-190.58 205.54,-192.36 214.81,-197.49 215.98,-190.58"/>
</a>
</g>
</g>
<!-- Node7&#45;&gt;Node5 -->
<g id="edge21_Node000007_Node000005" class="edge">
<title>Node7&#45;&gt;Node5</title>
<g id="a_edge21_Node000007_Node000005"><a xlink:title=" ">
<path fill="none" stroke="#63b8ff" d="M215.64,-179.96C239.89,-176.27 270.61,-171.64 298,-167.67 376.97,-156.24 466.85,-143.8 531.88,-134.9"/>
<polygon fill="#63b8ff" stroke="#63b8ff" points="215.03,-176.52 205.68,-181.49 216.09,-183.44 215.03,-176.52"/>
</a>
</g>
</g>
<!-- Node7&#45;&gt;Node4 -->
<g id="edge22_Node000007_Node000004" class="edge">
<title>Node7&#45;&gt;Node4</title>
<g id="a_edge22_Node000007_Node000004"><a xlink:title=" ">
<path fill="none" stroke="#63b8ff" d="M215.32,-179.55C230.68,-175.9 247.69,-170.51 262,-162.67 281.03,-152.24 279.11,-140.36 298,-129.67 307.88,-124.08 318.95,-119.47 329.99,-115.71"/>
<polygon fill="#63b8ff" stroke="#63b8ff" points="214.53,-176.14 205.51,-181.71 216.03,-182.98 214.53,-176.14"/>
</a>
</g>
</g>
</g>
</svg>
