<?xml version="1.0" encoding="UTF-8" standalone="no"?>
<!DOCTYPE svg PUBLIC "-//W3C//DTD SVG 1.1//EN"
 "http://www.w3.org/Graphics/SVG/1.1/DTD/svg11.dtd">
<!-- Generated by graphviz version 2.43.0 (0)
 -->
<!-- Title: test_influx_mapping._make_ref Pages: 1 -->
<!--zoomable 703 -->

<svg id="main" version="1.1" xmlns="http://www.w3.org/2000/svg" xmlns:xlink="http://www.w3.org/1999/xlink" xml:space="preserve" onload="init(evt)">
<style type="text/css"><![CDATA[
.node, .edge {opacity: 0.7;}
.node.selected, .edge.selected {opacity: 1;}
.edge:hover path { stroke: red; }
.edge:hover polygon { stroke: red; fill: red; }
]]></style>

<defs>
  <circle id="rim" cx="0" cy="0" r="7"/>
  <circle id="rim2" cx="0" cy="0" r="3.5"/>
  <g id="zoomPlus">
    <use xlink:href="#rim" fill="#404040"><set attributeName="fill" to="#808080" begin="zoomplus.mouseover" end="zoomplus.mouseout"/></use>
    <path d="M-4,0h8M0,-4v8" fill="none" stroke="white" stroke-width="1.5" pointer-events="none"/>
  </g>
  <g id="zoomMin">
    <use xlink:href="#rim" fill="#404040"><set attributeName="fill" to="#808080" begin="zoomminus.mouseover" end="zoomminus.mouseout"/></use>
    <path d="M-4,0h8" fill="none" stroke="white" stroke-width="1.5" pointer-events="none"/>
  </g>
  <g id="arrowUp" transform="translate(30 24)">
    <use xlink:href="#rim"/>
    <path pointer-events="none" fill="none" stroke="white" stroke-width="1.5" d="M0,-3.0v7 M-2.5,-0.5L0,-3.0L2.5,-0.5"/>
  </g>
  <g id="arrowRight" transform="rotate(90) translate(36 -43)">
    <use xlink:href="#rim"/>
    <path pointer-events="none" fill="none" stroke="white" stroke-width="1.5" d="M0,-3.0v7 M-2.5,-0.5L0,-3.0L2.5,-0.5"/>
  </g>
  <g id="arrowDown" transform="rotate(180) translate(-30 -48)">
    <use xlink:href="#rim"/>
    <path pointer-events="none" fill="none" stroke="white" stroke-width="1.5" d="M0,-3.0v7 M-2.5,-0.5L0,-3.0L2.5,-0.5"/>
  </g>
  <g id="arrowLeft" transform="rotate(270) translate(-36 17)">
    <use xlink:href="#rim"/>
    <path pointer-events="none" fill="none" stroke="white" stroke-width="1.5" d="M0,-3.0v7 M-2.5,-0.5L0,-3.0L2.5,-0.5"/>
  </g>
  <g id="resetDef">
    <use xlink:href="#rim2" fill="#404040"><set attributeName="fill" to="#808080" begin="reset.mouseover" end="reset.mouseout"/></use>
  </g>
</defs>
<script type="application/ecmascript">
var viewWidth = 346;
var viewHeight = 703;
var sectionId = 'dynsection-0';
</script>
<script type="application/ecmascript" xlink:href="svg.min.js"/>
<svg id="graph" class="graph">
<g id="viewport">
<title>test_influx_mapping._make_ref</title>
<!-- Node1 -->
<g id="Node000001" class="node">
<title>Node1</title>
<g id="a_Node000001"><a xlink:title="Create a lightweight reference&#45;like object for tests.">
<polygon fill="#999999" stroke="#666666" points="338,-356.5 219,-356.5 219,-326.5 338,-326.5 338,-356.5"/>
<text text-anchor="start" x="227" y="-344.5" font-family="Helvetica,sans-Serif" font-size="10.00">test_influx_mapping.</text>
<text text-anchor="middle" x="278.5" y="-333.5" font-family="Helvetica,sans-Serif" font-size="10.00">_make_ref</text>
</a>
</g>
</g>
<!-- Node2 -->
<g id="Node000002" class="node">
<title>Node2</title>
<g id="a_Node000002"><a xlink:href="classtest__influx__mapping_1_1TestInfluxMapper.html#adb6ac5407cac97f3d4176fd022313623" target="_top" xlink:title=" ">
<polygon fill="white" stroke="#666666" points="171.5,-694.5 11.5,-694.5 11.5,-642.5 171.5,-642.5 171.5,-694.5"/>
<text text-anchor="start" x="19.5" y="-682.5" font-family="Helvetica,sans-Serif" font-size="10.00">test_influx_mapping.Test</text>
<text text-anchor="start" x="19.5" y="-671.5" font-family="Helvetica,sans-Serif" font-size="10.00">InfluxMapper.test_add</text>
<text text-anchor="start" x="19.5" y="-660.5" font-family="Helvetica,sans-Serif" font-size="10.00">_value_to_point_returns</text>
<text text-anchor="middle" x="91.5" y="-649.5" font-family="Helvetica,sans-Serif" font-size="10.00">_false_on_retrieve_exception</text>
</a>
</g>
</g>
<!-- Node1&#45;&gt;Node2 -->
<g id="edge1_Node000001_Node000002" class="edge">
<title>Node1&#45;&gt;Node2</title>
<g id="a_edge1_Node000001_Node000002"><a xlink:title=" ">
<path fill="none" stroke="#63b8ff" d="M276.38,-366.84C272.58,-422.45 255.93,-556.37 183,-633.5 179.64,-637.05 175.89,-640.24 171.86,-643.12"/>
<polygon fill="#63b8ff" stroke="#63b8ff" points="279.88,-366.99 276.98,-356.8 272.89,-366.57 279.88,-366.99"/>
</a>
</g>
</g>
<!-- Node3 -->
<g id="Node000003" class="node">
<title>Node3</title>
<g id="a_Node000003"><a xlink:href="classtest__influx__mapping_1_1TestAccessCheck.html#ae84c39f9b0b5e1f428e7a06c879b3bd8" target="_top" xlink:title=" ">
<polygon fill="white" stroke="#666666" points="166.5,-624.5 16.5,-624.5 16.5,-572.5 166.5,-572.5 166.5,-624.5"/>
<text text-anchor="start" x="24.5" y="-612.5" font-family="Helvetica,sans-Serif" font-size="10.00">test_influx_mapping.Test</text>
<text text-anchor="start" x="24.5" y="-601.5" font-family="Helvetica,sans-Serif" font-size="10.00">AccessCheck.test_check</text>
<text text-anchor="start" x="24.5" y="-590.5" font-family="Helvetica,sans-Serif" font-size="10.00">_access_to_elements_false</text>
<text text-anchor="middle" x="91.5" y="-579.5" font-family="Helvetica,sans-Serif" font-size="10.00">_on_first_denied_access</text>
</a>
</g>
</g>
<!-- Node1&#45;&gt;Node3 -->
<g id="edge2_Node000001_Node000003" class="edge">
<title>Node1&#45;&gt;Node3</title>
<g id="a_edge2_Node000001_Node000003"><a xlink:title=" ">
<path fill="none" stroke="#63b8ff" d="M273.4,-366.62C264.73,-411.97 240.42,-507.96 183,-563.5 178.16,-568.18 172.62,-572.26 166.72,-575.8"/>
<polygon fill="#63b8ff" stroke="#63b8ff" points="276.85,-367.2 275.19,-356.73 269.96,-365.95 276.85,-367.2"/>
</a>
</g>
</g>
<!-- Node4 -->
<g id="Node000004" class="node">
<title>Node4</title>
<g id="a_Node000004"><a xlink:href="classtest__influx__mapping_1_1TestAccessCheck.html#a9cacae40b03a96b8302788ab76bef9d0" target="_top" xlink:title=" ">
<polygon fill="white" stroke="#666666" points="164.5,-554.5 18.5,-554.5 18.5,-502.5 164.5,-502.5 164.5,-554.5"/>
<text text-anchor="start" x="26.5" y="-542.5" font-family="Helvetica,sans-Serif" font-size="10.00">test_influx_mapping.Test</text>
<text text-anchor="start" x="26.5" y="-531.5" font-family="Helvetica,sans-Serif" font-size="10.00">AccessCheck.test_check</text>
<text text-anchor="start" x="26.5" y="-520.5" font-family="Helvetica,sans-Serif" font-size="10.00">_access_to_elements_true</text>
<text text-anchor="middle" x="91.5" y="-509.5" font-family="Helvetica,sans-Serif" font-size="10.00">_when_all_accessible</text>
</a>
</g>
</g>
<!-- Node1&#45;&gt;Node4 -->
<g id="edge3_Node000001_Node000004" class="edge">
<title>Node1&#45;&gt;Node4</title>
<g id="a_edge3_Node000001_Node000004"><a xlink:title=" ">
<path fill="none" stroke="#63b8ff" d="M268.09,-366.13C254.22,-399.37 225.29,-458.47 183,-493.5 177.42,-498.12 171.16,-502.18 164.61,-505.73"/>
<polygon fill="#63b8ff" stroke="#63b8ff" points="271.4,-367.28 271.91,-356.69 264.91,-364.65 271.4,-367.28"/>
</a>
</g>
</g>
<!-- Node5 -->
<g id="Node000005" class="node">
<title>Node5</title>
<g id="a_Node000005"><a xlink:href="classtest__influx__mapping_1_1TestMappingConfigurationHelpers.html#a9e1f94f9b82e10183909a6b0056f4afd" target="_top" xlink:title=" ">
<polygon fill="white" stroke="#666666" points="183,-484.5 0,-484.5 0,-432.5 183,-432.5 183,-484.5"/>
<text text-anchor="start" x="8" y="-472.5" font-family="Helvetica,sans-Serif" font-size="10.00">test_influx_mapping.Test</text>
<text text-anchor="start" x="8" y="-461.5" font-family="Helvetica,sans-Serif" font-size="10.00">MappingConfigurationHelpers.test</text>
<text text-anchor="start" x="8" y="-450.5" font-family="Helvetica,sans-Serif" font-size="10.00">_extract_target_references_from</text>
<text text-anchor="middle" x="91.5" y="-439.5" font-family="Helvetica,sans-Serif" font-size="10.00">_aimc_delegates</text>
</a>
</g>
</g>
<!-- Node1&#45;&gt;Node5 -->
<g id="edge4_Node000001_Node000005" class="edge">
<title>Node1&#45;&gt;Node5</title>
<g id="a_edge4_Node000001_Node000005"><a xlink:title=" ">
<path fill="none" stroke="#63b8ff" d="M256.21,-363.84C238.1,-381.85 210.68,-406.84 183,-423.5 177.8,-426.63 172.28,-429.57 166.62,-432.31"/>
<polygon fill="#63b8ff" stroke="#63b8ff" points="258.84,-366.17 263.38,-356.6 253.86,-361.25 258.84,-366.17"/>
</a>
</g>
</g>
<!-- Node6 -->
<g id="Node000006" class="node">
<title>Node6</title>
<g id="a_Node000006"><a xlink:href="classtest__influx__mapping_1_1TestMappingConfigurationHelpers.html#acee42be19fd632082571ffab5965c6d5" target="_top" xlink:title=" ">
<polygon fill="white" stroke="#666666" points="183,-414 0,-414 0,-351 183,-351 183,-414"/>
<text text-anchor="start" x="8" y="-402" font-family="Helvetica,sans-Serif" font-size="10.00">test_influx_mapping.Test</text>
<text text-anchor="start" x="8" y="-391" font-family="Helvetica,sans-Serif" font-size="10.00">MappingConfigurationHelpers.test</text>
<text text-anchor="start" x="8" y="-380" font-family="Helvetica,sans-Serif" font-size="10.00">_extract_target_references_from</text>
<text text-anchor="start" x="8" y="-369" font-family="Helvetica,sans-Serif" font-size="10.00">_mapping_configuration_flattens</text>
<text text-anchor="middle" x="91.5" y="-358" font-family="Helvetica,sans-Serif" font-size="10.00">_relations</text>
</a>
</g>
</g>
<!-- Node1&#45;&gt;Node6 -->
<g id="edge5_Node000001_Node000006" class="edge">
<title>Node1&#45;&gt;Node6</title>
<g id="a_edge5_Node000001_Node000006"><a xlink:title=" ">
<path fill="none" stroke="#63b8ff" d="M209.15,-356.65C200.65,-358.53 191.87,-360.48 183.1,-362.42"/>
<polygon fill="#63b8ff" stroke="#63b8ff" points="209.96,-360.05 218.96,-354.47 208.44,-353.22 209.96,-360.05"/>
</a>
</g>
</g>
<!-- Node7 -->
<g id="Node000007" class="node">
<title>Node7</title>
<g id="a_Node000007"><a xlink:href="classtest__influx__mapping_1_1TestInfluxMapper.html#a182b851e15956775d12e1408299c1921" target="_top" xlink:title=" ">
<polygon fill="white" stroke="#666666" points="166,-333 17,-333 17,-270 166,-270 166,-333"/>
<text text-anchor="start" x="25" y="-321" font-family="Helvetica,sans-Serif" font-size="10.00">test_influx_mapping.Test</text>
<text text-anchor="start" x="25" y="-310" font-family="Helvetica,sans-Serif" font-size="10.00">InfluxMapper.test_map</text>
<text text-anchor="start" x="25" y="-299" font-family="Helvetica,sans-Serif" font-size="10.00">_smes_to_influx_builds</text>
<text text-anchor="start" x="25" y="-288" font-family="Helvetica,sans-Serif" font-size="10.00">_points_for_measurements</text>
<text text-anchor="middle" x="91.5" y="-277" font-family="Helvetica,sans-Serif" font-size="10.00">_with_values</text>
</a>
</g>
</g>
<!-- Node1&#45;&gt;Node7 -->
<g id="edge6_Node000001_Node000007" class="edge">
<title>Node1&#45;&gt;Node7</title>
<g id="a_edge6_Node000001_Node000007"><a xlink:title=" ">
<path fill="none" stroke="#63b8ff" d="M208.99,-326.69C195.07,-323.68 180.37,-320.5 166.28,-317.45"/>
<polygon fill="#63b8ff" stroke="#63b8ff" points="208.45,-330.15 218.96,-328.84 209.93,-323.31 208.45,-330.15"/>
</a>
</g>
</g>
<!-- Node8 -->
<g id="Node000008" class="node">
<title>Node8</title>
<g id="a_Node000008"><a xlink:href="classtest__influx__mapping_1_1TestInfluxMapper.html#a557777ce072d4dcc21c19b8cbdd73b9e" target="_top" xlink:title=" ">
<polygon fill="white" stroke="#666666" points="180.5,-251.5 2.5,-251.5 2.5,-199.5 180.5,-199.5 180.5,-251.5"/>
<text text-anchor="start" x="10.5" y="-239.5" font-family="Helvetica,sans-Serif" font-size="10.00">test_influx_mapping.Test</text>
<text text-anchor="start" x="10.5" y="-228.5" font-family="Helvetica,sans-Serif" font-size="10.00">InfluxMapper.test_map</text>
<text text-anchor="start" x="10.5" y="-217.5" font-family="Helvetica,sans-Serif" font-size="10.00">_smes_to_influx_raises</text>
<text text-anchor="middle" x="91.5" y="-206.5" font-family="Helvetica,sans-Serif" font-size="10.00">_bad_request_when_access_fails</text>
</a>
</g>
</g>
<!-- Node1&#45;&gt;Node8 -->
<g id="edge7_Node000001_Node000008" class="edge">
<title>Node1&#45;&gt;Node8</title>
<g id="a_edge7_Node000001_Node000008"><a xlink:title=" ">
<path fill="none" stroke="#63b8ff" d="M255.43,-319.18C237.23,-301.73 210.09,-277.76 183,-261.5 177.2,-258.02 171,-254.75 164.68,-251.7"/>
<polygon fill="#63b8ff" stroke="#63b8ff" points="253.05,-321.75 262.65,-326.23 257.94,-316.74 253.05,-321.75"/>
</a>
</g>
</g>
<!-- Node9 -->
<g id="Node000009" class="node">
<title>Node9</title>
<g id="a_Node000009"><a xlink:href="classtest__influx__mapping_1_1TestInfluxMapper.html#a6b0afccf629ea5c2595661333d289fa0" target="_top" xlink:title=" ">
<polygon fill="white" stroke="#666666" points="179.5,-181.5 3.5,-181.5 3.5,-129.5 179.5,-129.5 179.5,-181.5"/>
<text text-anchor="start" x="11.5" y="-169.5" font-family="Helvetica,sans-Serif" font-size="10.00">test_influx_mapping.Test</text>
<text text-anchor="start" x="11.5" y="-158.5" font-family="Helvetica,sans-Serif" font-size="10.00">InfluxMapper.test_retrieve</text>
<text text-anchor="start" x="11.5" y="-147.5" font-family="Helvetica,sans-Serif" font-size="10.00">_sme_value_returns_none_when</text>
<text text-anchor="middle" x="91.5" y="-136.5" font-family="Helvetica,sans-Serif" font-size="10.00">_element_missing</text>
</a>
</g>
</g>
<!-- Node1&#45;&gt;Node9 -->
<g id="edge8_Node000001_Node000009" class="edge">
<title>Node1&#45;&gt;Node9</title>
<g id="a_edge8_Node000001_Node000009"><a xlink:title=" ">
<path fill="none" stroke="#63b8ff" d="M268.05,-317.04C254.13,-284.01 225.14,-225.3 183,-190.5 179.1,-187.28 174.88,-184.34 170.45,-181.65"/>
<polygon fill="#63b8ff" stroke="#63b8ff" points="264.86,-318.48 271.88,-326.41 271.33,-315.83 264.86,-318.48"/>
</a>
</g>
</g>
<!-- Node10 -->
<g id="Node000010" class="node">
<title>Node10</title>
<g id="a_Node000010"><a xlink:href="classtest__influx__mapping_1_1TestInfluxMapper.html#a91a72329768b2f15797ccff21ec95cad" target="_top" xlink:title=" ">
<polygon fill="white" stroke="#666666" points="179.5,-111.5 3.5,-111.5 3.5,-59.5 179.5,-59.5 179.5,-111.5"/>
<text text-anchor="start" x="11.5" y="-99.5" font-family="Helvetica,sans-Serif" font-size="10.00">test_influx_mapping.Test</text>
<text text-anchor="start" x="11.5" y="-88.5" font-family="Helvetica,sans-Serif" font-size="10.00">InfluxMapper.test_retrieve</text>
<text text-anchor="start" x="11.5" y="-77.5" font-family="Helvetica,sans-Serif" font-size="10.00">_sme_value_returns_none_when</text>
<text text-anchor="middle" x="91.5" y="-66.5" font-family="Helvetica,sans-Serif" font-size="10.00">_sme_has_no_value</text>
</a>
</g>
</g>
<!-- Node1&#45;&gt;Node10 -->
<g id="edge9_Node000001_Node000010" class="edge">
<title>Node1&#45;&gt;Node10</title>
<g id="a_edge9_Node000001_Node000010"><a xlink:title=" ">
<path fill="none" stroke="#63b8ff" d="M273.37,-316.49C264.65,-271.34 240.25,-175.78 183,-120.5 179.61,-117.22 175.87,-114.25 171.91,-111.54"/>
<polygon fill="#63b8ff" stroke="#63b8ff" points="269.92,-317.13 275.17,-326.33 276.81,-315.87 269.92,-317.13"/>
</a>
</g>
</g>
<!-- Node11 -->
<g id="Node000011" class="node">
<title>Node11</title>
<g id="a_Node000011"><a xlink:href="classtest__influx__mapping_1_1TestInfluxMapper.html#a7284821ece1e0efc4867a4be64e7bc3d" target="_top" xlink:title=" ">
<polygon fill="white" stroke="#666666" points="178,-41 5,-41 5,0 178,0 178,-41"/>
<text text-anchor="start" x="13" y="-29" font-family="Helvetica,sans-Serif" font-size="10.00">test_influx_mapping.Test</text>
<text text-anchor="start" x="13" y="-18" font-family="Helvetica,sans-Serif" font-size="10.00">InfluxMapper.test_retrieve</text>
<text text-anchor="middle" x="91.5" y="-7" font-family="Helvetica,sans-Serif" font-size="10.00">_sme_value_returns_sme_value</text>
</a>
</g>
</g>
<!-- Node1&#45;&gt;Node11 -->
<g id="edge10_Node000001_Node000011" class="edge">
<title>Node1&#45;&gt;Node11</title>
<g id="a_edge10_Node000001_Node000011"><a xlink:title=" ">
<path fill="none" stroke="#63b8ff" d="M276.65,-316.37C273.39,-260.65 257.77,-125.73 183,-50.5 179.5,-46.98 175.58,-43.87 171.38,-41.13"/>
<polygon fill="#63b8ff" stroke="#63b8ff" points="273.16,-316.61 277.15,-326.42 280.15,-316.26 273.16,-316.61"/>
</a>
</g>
</g>
</g>
</svg>

<g id="navigator" transform="translate(0 0)" fill="#404254">
  <rect fill="#f2f5e9" fill-opacity="0.5" stroke="#606060" stroke-width=".5" x="0" y="0" width="60" height="60"/>
  <use id="zoomplus" xlink:href="#zoomPlus" x="17" y="9" onmousedown="handleZoom(evt,'in')"/>
  <use id="zoomminus" xlink:href="#zoomMin" x="42" y="9" onmousedown="handleZoom(evt,'out')"/>
  <use id="reset" xlink:href="#resetDef" x="30" y="36" onmousedown="handleReset()"/>
   <use id="arrowup" xlink:href="#arrowUp" x="0" y="0" onmousedown="handlePan(0,-1)"/>
  <use id="arrowright" xlink:href="#arrowRight" x="0" y="0" onmousedown="handlePan(1,0)"/>
  <use id="arrowdown" xlink:href="#arrowDown" x="0" y="0" onmousedown="handlePan(0,1)"/>
  <use id="arrowleft" xlink:href="#arrowLeft" x="0" y="0" onmousedown="handlePan(-1,0)"/>
</g>
<svg viewBox="0 0 15 15" width="100%" height="30px" preserveAspectRatio="xMaxYMin meet">
 <g id="arrow_out" transform="scale(0.3 0.3)">
  <a xlink:href="namespacetest__influx__mapping_ab63bd702bf13f719d1fcc3462c51d86d_icgraph_org.svg" target="_base">
   <rect id="button" ry="5" rx="5" y="6" x="6" height="38" width="38"
        fill="#f2f5e9" fill-opacity="0.5" stroke="#606060" stroke-width="1.0"/>
   <path id="arrow"
     d="M 11.500037,31.436501 C 11.940474,20.09759 22.043105,11.32322 32.158766,21.979434 L 37.068811,17.246167 C 37.068811,17.246167 37.088388,32 37.088388,32 L 22.160133,31.978069 C 22.160133,31.978069 26.997745,27.140456 26.997745,27.140456 C 18.528582,18.264221 13.291696,25.230495 11.500037,31.436501 z"
     style="fill:#404040;"/>
  </a>
 </g>
</svg>

<style type='text/css'>
<![CDATA[
[data-mouse-over-selected='false'] { opacity: 0.7; }
[data-mouse-over-selected='true']  { opacity: 1.0; }
]]>
</style>
<script type="application/ecmascript"><![CDATA[
document.addEventListener('DOMContentLoaded', (event) => {
  highlightEdges();
  highlightAdjacentNodes();
});
]]></script>
</svg>
